<svg width="82" height="87" viewBox="0 0 82 87" fill="none" xmlns="http://www.w3.org/2000/svg">
<mask id="path-1-outside-1_47_31885" maskUnits="userSpaceOnUse" x="0.330078" y="0.603058" width="82" height="86" fill="black">
<rect fill="white" x="0.330078" y="0.603058" width="82" height="86"/>
<path fill-rule="evenodd" clip-rule="evenodd" d="M9.5758 46.5732C14.3807 53.9576 21.6516 59.7048 29.9449 62.6786C32.2641 63.5102 34.6829 63.9375 37.1432 64.0206C35.9786 70.3638 34.6144 76.6658 33.0523 82.914L33.0322 83.021C32.9855 83.295 33.1659 83.5556 33.4399 83.6024V83.5957C33.7139 83.6425 33.9745 83.462 34.0213 83.188L34.0347 83.1212C35.6128 76.8123 36.9894 70.4458 38.1627 64.0355C46.7278 63.9989 55.6952 59.9268 62.6436 54.3319C71.8725 46.9006 77.7934 35.5065 78.5753 23.6847C69.0457 24.7206 60.1643 29.452 53.7422 36.4755C54.3703 24.2862 50.922 12.8186 44.2861 3.60306C35.8457 10.4195 30.3057 19.762 28.2942 29.8396C21.8988 23.5177 12.6699 19.8689 3.63482 20.4703C2.45197 30.2138 4.7709 39.1887 9.5758 46.5732Z"/>
</mask>
<path fill-rule="evenodd" clip-rule="evenodd" d="M9.5758 46.5732C14.3807 53.9576 21.6516 59.7048 29.9449 62.6786C32.2641 63.5102 34.6829 63.9375 37.1432 64.0206C35.9786 70.3638 34.6144 76.6658 33.0523 82.914L33.0322 83.021C32.9855 83.295 33.1659 83.5556 33.4399 83.6024V83.5957C33.7139 83.6425 33.9745 83.462 34.0213 83.188L34.0347 83.1212C35.6128 76.8123 36.9894 70.4458 38.1627 64.0355C46.7278 63.9989 55.6952 59.9268 62.6436 54.3319C71.8725 46.9006 77.7934 35.5065 78.5753 23.6847C69.0457 24.7206 60.1643 29.452 53.7422 36.4755C54.3703 24.2862 50.922 12.8186 44.2861 3.60306C35.8457 10.4195 30.3057 19.762 28.2942 29.8396C21.8988 23.5177 12.6699 19.8689 3.63482 20.4703C2.45197 30.2138 4.7709 39.1887 9.5758 46.5732Z" fill="#FCDB54"/>
<path d="M29.9449 62.6786L28.9322 65.5026L28.9323 65.5026L29.9449 62.6786ZM9.5758 46.5732L7.06125 48.2094H7.06125L9.5758 46.5732ZM37.1432 64.0206L40.0938 64.5623C40.2514 63.7039 40.0274 62.8194 39.4802 62.1395C38.9329 61.4596 38.1167 61.0518 37.2445 61.0223L37.1432 64.0206ZM33.0523 82.914L30.1419 82.1864C30.1274 82.2443 30.1147 82.3026 30.1037 82.3612L33.0523 82.914ZM33.0322 83.021L30.0836 82.4681C30.0806 82.4841 30.0778 82.5001 30.075 82.5161L33.0322 83.021ZM33.4399 83.6024L32.9349 86.5596C33.8063 86.7083 34.6989 86.4653 35.3745 85.8953C36.0501 85.3252 36.4399 84.4863 36.4399 83.6024H33.4399ZM33.4399 83.5957L33.9447 80.6385C33.0734 80.4897 32.1808 80.7328 31.5053 81.3028C30.8297 81.8728 30.4399 82.7118 30.4399 83.5957H33.4399ZM34.0213 83.188L31.0796 82.5992C31.0741 82.6271 31.0689 82.6551 31.0641 82.6831L34.0213 83.188ZM34.0347 83.1212L31.1243 82.3932C31.1128 82.4393 31.1024 82.4857 31.093 82.5324L34.0347 83.1212ZM38.1627 64.0355L38.1499 61.0355C36.7062 61.0417 35.4717 62.0753 35.2117 63.4954L38.1627 64.0355ZM62.6436 54.3319L64.5251 56.6685L62.6436 54.3319ZM78.5753 23.6847L81.5687 23.8827C81.6273 22.998 81.2914 22.1327 80.6514 21.5191C80.0113 20.9055 79.1326 20.6065 78.2511 20.7023L78.5753 23.6847ZM53.7422 36.4755L50.7461 36.3211C50.681 37.5856 51.4166 38.7548 52.5847 39.2433C53.7528 39.7318 55.1018 39.4343 55.9562 38.5L53.7422 36.4755ZM44.2861 3.60306L46.7206 1.85C46.2388 1.18098 45.503 0.739703 44.6859 0.629823C43.8688 0.519943 43.0425 0.751151 42.4012 1.26913L44.2861 3.60306ZM28.2942 29.8396L26.1852 31.9731C26.97 32.7489 28.1173 33.0312 29.1724 32.7081C30.2276 32.3851 31.0202 31.5089 31.2362 30.4268L28.2942 29.8396ZM3.63482 20.4703L3.43556 17.477C1.99728 17.5727 0.830405 18.6778 0.656688 20.1088L3.63482 20.4703ZM30.9575 59.8547C23.2806 57.1019 16.5375 51.7717 12.0904 44.937L7.06125 48.2094C12.2239 56.1436 20.0225 62.3077 28.9322 65.5026L30.9575 59.8547ZM37.2445 61.0223C35.0657 60.9487 32.9573 60.5718 30.9575 59.8547L28.9323 65.5026C31.5708 66.4487 34.3 66.9262 37.0418 67.0189L37.2445 61.0223ZM35.9627 83.6416C37.5402 77.3316 38.9178 70.9677 40.0938 64.5623L34.1925 63.4789C33.0393 69.7599 31.6885 75.9999 30.1419 82.1864L35.9627 83.6416ZM35.9809 83.5738L36.0009 83.4669L30.1037 82.3612L30.0836 82.4681L35.9809 83.5738ZM33.9448 80.6452C35.3409 80.8835 36.2152 82.2038 35.9895 83.5258L30.075 82.5161C29.7558 84.3861 30.9908 86.2276 32.9349 86.5596L33.9448 80.6452ZM30.4399 83.5957V83.6024H36.4399V83.5957H30.4399ZM31.0641 82.6831C31.3024 81.2871 32.6226 80.4128 33.9447 80.6385L32.935 86.5529C34.8052 86.8722 36.6466 85.6369 36.9785 83.6929L31.0641 82.6831ZM31.093 82.5324L31.0796 82.5992L36.9629 83.7769L36.9763 83.71L31.093 82.5324ZM35.2117 63.4954C34.0499 69.843 32.6868 76.1468 31.1243 82.3932L36.945 83.8492C38.5388 77.4778 39.9289 71.0487 41.1137 64.5756L35.2117 63.4954ZM60.7621 51.9952C54.1682 57.3047 45.8397 61.0027 38.1499 61.0355L38.1755 67.0355C47.6159 66.9951 57.2222 62.5489 64.5251 56.6685L60.7621 51.9952ZM75.5818 23.4868C74.8553 34.472 69.3373 45.0904 60.7621 51.9952L64.5251 56.6685C74.4077 48.7109 80.7315 36.541 81.5687 23.8827L75.5818 23.4868ZM55.9562 38.5C61.9154 31.9826 70.1378 27.6195 78.8995 26.6672L78.2511 20.7023C67.9536 21.8216 58.4132 26.9213 51.5282 34.4511L55.9562 38.5ZM41.8516 5.35611C48.0813 14.0076 51.3399 24.7998 50.7461 36.3211L56.7382 36.6299C57.4008 23.7726 53.7627 11.6296 46.7206 1.85L41.8516 5.35611ZM31.2362 30.4268C33.1104 21.0371 38.2764 12.3127 46.1709 5.93699L42.4012 1.26913C33.4151 8.52629 27.5011 18.4868 25.3523 29.2523L31.2362 30.4268ZM3.83409 23.4637C11.968 22.9223 20.3685 26.2233 26.1852 31.9731L30.4032 27.706C23.4291 20.8121 13.3718 16.8155 3.43556 17.477L3.83409 23.4637ZM12.0904 44.937C7.6623 38.1317 5.5167 29.862 6.61296 20.8319L0.656688 20.1088C-0.612756 30.5656 1.8795 40.2457 7.06125 48.2094L12.0904 44.937Z" fill="#5E4C09" mask="url(#path-1-outside-1_47_31885)"/>
<path d="M29.9449 62.6786C21.6516 59.7048 14.3807 53.9576 9.5758 46.5732C4.7709 39.1887 2.45197 30.2138 3.63482 20.4703C12.6699 19.8689 21.8988 23.5177 28.2942 29.8396C30.3057 19.762 35.8457 10.4195 44.2861 3.60306C50.922 12.8186 54.3703 24.2862 53.7422 36.4755C60.1643 29.452 69.0457 24.7206 78.5753 23.6847C77.7934 35.5065 71.8725 46.9006 62.6436 54.3319C53.4147 61.7631 40.6239 66.5079 29.9449 62.6786Z" fill="#ECBE16"/>
<path d="M33.4404 83.6024C33.1664 83.5556 32.986 83.295 33.0328 83.021L33.0528 82.914C38.7799 60.0055 41.8473 36.3753 42.1681 12.6382C42.1681 12.3642 42.402 12.137 42.676 12.1436C42.95 12.1436 43.1772 12.3708 43.1705 12.6515C42.8497 36.4622 39.7757 60.1726 34.0352 83.1212L34.0218 83.188C33.975 83.462 33.7144 83.6425 33.4404 83.5957V83.6024Z" fill="#FCDB54"/>
<path d="M39.2142 53.6035L39.0404 53.5032C27.7599 47.1947 17.8093 38.7878 10.2645 29.1847C10.0907 28.9641 10.1308 28.65 10.3514 28.483C10.5719 28.3092 10.886 28.3493 11.053 28.5699C18.4776 38.0193 28.2611 46.3059 39.3545 52.5342C51.9649 49.2329 63.2654 41.7215 71.1979 31.3699C71.3649 31.1494 71.679 31.1093 71.8996 31.2764C72.1201 31.4434 72.1602 31.7575 71.9931 31.9781C63.8869 42.5569 52.3124 50.222 39.408 53.55L39.2142 53.6035Z" fill="#FCDB54"/>
<path d="M41.8325 23.3239C41.7189 23.3038 41.612 23.2437 41.5318 23.1434C40.1284 21.4126 39.0524 19.4679 38.3441 17.3562C38.2572 17.0956 38.3975 16.8082 38.6582 16.7213C38.9188 16.6344 39.2062 16.7748 39.293 17.0354C39.968 19.0336 40.9771 20.8713 42.307 22.5086C42.4807 22.7224 42.4473 23.0365 42.2334 23.2103C42.1132 23.3038 41.9661 23.3372 41.8325 23.3172V23.3239Z" fill="#FCDB54"/>
<path d="M42.8899 20.7109C42.7562 20.7109 42.6158 20.6574 42.5223 20.5505C42.3352 20.3433 42.3485 20.0293 42.5557 19.8421C43.919 18.5991 45.035 17.0487 45.7835 15.3647C45.8971 15.1107 46.1911 15.0038 46.4451 15.1107C46.699 15.2243 46.8126 15.5184 46.699 15.7723C45.8904 17.5767 44.6942 19.2407 43.2307 20.5772C43.1371 20.6641 43.0168 20.7109 42.8899 20.7109Z" fill="#FCDB54"/>
<path d="M41.6059 33.8826C41.5391 33.8692 41.4722 33.8425 41.4121 33.8024C38.064 31.5169 35.4244 28.3493 33.7804 24.647C33.6668 24.3931 33.7804 24.099 34.0343 23.9854C34.2883 23.8718 34.5823 23.9854 34.6959 24.2394C36.2463 27.7211 38.8326 30.8286 41.9801 32.9804C42.2073 33.1341 42.2675 33.4482 42.1138 33.6754C42.0002 33.8425 41.7997 33.916 41.6126 33.8893L41.6059 33.8826Z" fill="#FCDB54"/>
<path d="M41.7131 31.7241C41.5527 31.6973 41.4057 31.5904 41.3388 31.43C41.2319 31.1761 41.3455 30.882 41.6061 30.7751C44.2792 29.6324 46.665 27.6944 48.3357 25.322C48.4961 25.0948 48.8102 25.0413 49.0307 25.2017C49.2579 25.3621 49.3114 25.6762 49.151 25.8967C47.3533 28.4629 44.874 30.4677 41.9937 31.6973C41.9002 31.7374 41.7999 31.7441 41.7131 31.7307V31.7241Z" fill="#FCDB54"/>
<path d="M15.6562 34.8516C15.4357 34.8115 15.262 34.6311 15.2419 34.3972C15.0347 31.8444 14.4132 29.3584 13.3975 27.0128C13.2839 26.7588 13.3975 26.4648 13.6581 26.3512C13.912 26.2376 14.2061 26.3512 14.3197 26.6118C15.3822 29.0644 16.0305 31.6573 16.2443 34.317C16.2644 34.591 16.0639 34.8316 15.7832 34.8583C15.7364 34.8583 15.6963 34.8583 15.6562 34.8583V34.8516Z" fill="#FCDB54"/>
<path d="M10.7796 40.3248C10.5457 40.2847 10.3652 40.0776 10.3652 39.8303C10.3652 39.5496 10.5924 39.3291 10.8664 39.3291C13.3792 39.3425 15.8718 38.5205 17.89 37.0169C18.1106 36.8498 18.4246 36.8966 18.5917 37.1171C18.7588 37.3376 18.712 37.6517 18.4915 37.8188C16.3062 39.4494 13.593 40.3449 10.8664 40.3315C10.8397 40.3315 10.8063 40.3315 10.7796 40.3248Z" fill="#FCDB54"/>
<path d="M28.7285 46.9675C28.4678 46.9207 28.2874 46.6868 28.3141 46.4195C28.655 43.2452 28.2206 39.9974 27.0578 37.0235C26.9575 36.7629 27.0845 36.4755 27.3384 36.3753C27.5991 36.2751 27.8864 36.402 27.9867 36.656C29.2029 39.7768 29.664 43.185 29.3032 46.5197C29.2764 46.7937 29.0292 46.9942 28.7485 46.9675C28.7351 46.9675 28.7284 46.9675 28.7151 46.9675H28.7285Z" fill="#FCDB54"/>
<path d="M18.2353 49.2129C18.0348 49.1795 17.8678 49.0191 17.8277 48.8053C17.7809 48.5313 17.9613 48.2707 18.2353 48.2239C21.276 47.6959 24.1897 46.4529 26.669 44.6219C26.8895 44.4548 27.2036 44.5016 27.3707 44.7288C27.5377 44.9493 27.491 45.2634 27.2637 45.4305C24.6575 47.3551 21.5968 48.6582 18.4024 49.2129C18.3423 49.2263 18.2888 49.2196 18.2287 49.2129H18.2353Z" fill="#FCDB54"/>
<path d="M65.4309 39.0017C65.2371 38.9682 65.0767 38.8212 65.0299 38.6207C64.3683 35.7338 65.1636 32.5461 67.1016 30.3074C67.282 30.1002 67.5961 30.0735 67.8099 30.2539C68.0171 30.4344 68.0439 30.7485 67.8634 30.9623C66.1326 32.9671 65.4175 35.814 66.0123 38.3935C66.0724 38.6608 65.9054 38.9348 65.6381 38.995C65.5712 39.0083 65.5044 39.0083 65.4376 38.995L65.4309 39.0017Z" fill="#FCDB54"/>
<path d="M62.4971 41.7015C62.2098 41.648 62.016 41.3941 62.0694 41.1134C62.1162 40.8394 62.3768 40.659 62.6508 40.7058C62.6508 40.7058 62.6642 40.7058 62.6709 40.7058C64.9564 41.1067 67.3622 40.5855 69.2801 39.2757C69.5073 39.1219 69.8214 39.1754 69.9751 39.4093C70.1288 39.6365 70.0754 39.9506 69.8415 40.1043C67.7164 41.5611 65.0366 42.1426 62.4971 41.6948V41.7015Z" fill="#FCDB54"/>
<path d="M53.0608 47.5221C52.8269 47.482 52.6465 47.2749 52.6465 47.0209C52.6732 43.9602 53.6756 40.9062 55.4599 38.4202C55.6203 38.193 55.9344 38.1462 56.1616 38.3066C56.3888 38.467 56.4356 38.7811 56.2752 39.0083C54.6045 41.3272 53.6756 44.1741 53.6489 47.0343C53.6489 47.3083 53.4217 47.5355 53.141 47.5288C53.1143 47.5288 53.0875 47.5288 53.0608 47.5221Z" fill="#FCDB54"/>
<path d="M51.1299 51.5251C50.0473 51.338 48.9848 51.0373 47.9556 50.6296C47.7017 50.5294 47.5747 50.2353 47.675 49.9814C47.7752 49.7208 48.0692 49.5938 48.3232 49.7007C52.4464 51.338 57.258 51.0974 61.1942 49.0592C61.4414 48.9322 61.7422 49.0258 61.8691 49.273C61.9961 49.5203 61.9025 49.821 61.6553 49.948C58.4409 51.612 54.6785 52.1466 51.1233 51.5251H51.1299Z" fill="#FCDB54"/>
</svg>
