<svg width="59" height="87" viewBox="0 0 59 87" fill="none" xmlns="http://www.w3.org/2000/svg">
<mask id="path-1-outside-1_47_31908" maskUnits="userSpaceOnUse" x="0.865234" y="-0.396912" width="58" height="87" fill="black">
<rect fill="white" x="0.865234" y="-0.396912" width="58" height="87"/>
<path fill-rule="evenodd" clip-rule="evenodd" d="M38.3827 30.9835C51.6223 9.40986 58.0863 29.454 40.6162 47.1377H40.622C41.3003 46.8084 41.8803 46.5202 42.3921 46.2658C44.715 45.1112 45.6337 44.6546 47.9748 44.2289C53.7231 43.19 57.9594 49.1981 53.071 56.3201C44.67 68.5591 34.6252 72.6949 25.7495 70.8002C25.3312 74.9371 24.952 79.0727 24.6123 83.2034C24.6008 83.3708 24.4911 83.5093 24.3468 83.567V83.5728C24.2833 83.5958 24.2199 83.6074 24.1448 83.6016C23.9082 83.5843 23.7293 83.3708 23.7466 83.1341C24.0905 78.9594 24.4745 74.7799 24.8983 70.5992C15.0607 68.0499 6.79779 58.0437 4.04264 43.4786C2.47194 33.2559 11.7553 34.2028 15.1672 40.8529C13.1787 35.3837 11.1061 27.1931 12.8672 21.576C14.2581 17.1436 20.1103 16.5203 22.4247 20.543C23.4866 22.3898 24.1734 24.6638 24.6005 26.5856C23.5212 -9.37038 50.4334 0.55071 38.3827 30.9835Z"/>
</mask>
<path fill-rule="evenodd" clip-rule="evenodd" d="M38.3827 30.9835C51.6223 9.40986 58.0863 29.454 40.6162 47.1377H40.622C41.3003 46.8084 41.8803 46.5202 42.3921 46.2658C44.715 45.1112 45.6337 44.6546 47.9748 44.2289C53.7231 43.19 57.9594 49.1981 53.071 56.3201C44.67 68.5591 34.6252 72.6949 25.7495 70.8002C25.3312 74.9371 24.952 79.0727 24.6123 83.2034C24.6008 83.3708 24.4911 83.5093 24.3468 83.567V83.5728C24.2833 83.5958 24.2199 83.6074 24.1448 83.6016C23.9082 83.5843 23.7293 83.3708 23.7466 83.1341C24.0905 78.9594 24.4745 74.7799 24.8983 70.5992C15.0607 68.0499 6.79779 58.0437 4.04264 43.4786C2.47194 33.2559 11.7553 34.2028 15.1672 40.8529C13.1787 35.3837 11.1061 27.1931 12.8672 21.576C14.2581 17.1436 20.1103 16.5203 22.4247 20.543C23.4866 22.3898 24.1734 24.6638 24.6005 26.5856C23.5212 -9.37038 50.4334 0.55071 38.3827 30.9835Z" fill="#649959"/>
<path d="M40.6162 47.1377L38.482 45.0293C37.6316 45.8901 37.3816 47.1776 37.8481 48.2942C38.3145 49.4107 39.4061 50.1377 40.6162 50.1377V47.1377ZM38.3827 30.9835L35.5934 29.879C35.0205 31.3258 35.649 32.9706 37.0408 33.6666C38.4326 34.3627 40.1256 33.879 40.9396 32.5526L38.3827 30.9835ZM40.622 47.1377V50.1377C41.0758 50.1377 41.5237 50.0347 41.932 49.8366L40.622 47.1377ZM42.3921 46.2658L43.7274 48.9522L42.3921 46.2658ZM47.9748 44.2289L47.4412 41.2767L47.4381 41.2773L47.9748 44.2289ZM53.071 56.3201L55.5444 58.0178L55.5444 58.0178L53.071 56.3201ZM25.7495 70.8002L26.3758 67.8663C25.5418 67.6883 24.6715 67.8736 23.9824 68.3759C23.2932 68.8782 22.8505 69.65 22.7647 70.4985L25.7495 70.8002ZM24.6123 83.2034L21.6224 82.9575C21.6213 82.9706 21.6203 82.9838 21.6194 82.997L24.6123 83.2034ZM24.3468 83.567L23.2326 80.7816C22.0937 81.2372 21.3468 82.3403 21.3468 83.567H24.3468ZM24.3468 83.5728L25.3721 86.3921C26.5576 85.961 27.3468 84.8343 27.3468 83.5728H24.3468ZM24.1448 83.6016L24.3748 80.6104L24.3638 80.6096L24.1448 83.6016ZM23.7466 83.1341L20.7567 82.8879C20.756 82.897 20.7553 82.9061 20.7546 82.9152L23.7466 83.1341ZM24.8983 70.5992L27.883 70.9017C28.0323 69.4284 27.0843 68.0665 25.6508 67.6951L24.8983 70.5992ZM4.04264 43.4786L1.07744 43.9342C1.08268 43.9683 1.08851 44.0023 1.09492 44.0362L4.04264 43.4786ZM15.1672 40.8529L12.498 42.2224C13.2211 43.6316 14.9151 44.236 16.3669 43.6026C17.8186 42.9692 18.5279 41.3164 17.9866 39.8278L15.1672 40.8529ZM12.8672 21.576L10.0048 20.6778L10.0046 20.6786L12.8672 21.576ZM22.4247 20.543L25.0254 19.0475L25.025 19.0469L22.4247 20.543ZM24.6005 26.5856L21.6719 27.2364C22.0076 28.747 23.4371 29.7544 24.9725 29.5625C26.508 29.3706 27.6456 28.0423 27.5991 26.4956L24.6005 26.5856ZM42.7504 49.2461C47.3773 44.5626 50.4757 39.6674 52.2769 35.2529C54.0373 30.9384 54.6833 26.7625 53.9326 23.6382C53.5529 22.0579 52.7138 20.3752 51.0602 19.3807C49.3187 18.3333 47.3603 18.4535 45.6593 19.1342C42.5076 20.3954 39.1913 23.9303 35.8258 29.4143L40.9396 32.5526C44.1939 27.2499 46.6505 25.2001 47.8885 24.7047C48.3823 24.5071 48.2729 24.7059 47.9678 24.5223C47.7504 24.3916 47.9347 24.3579 48.0986 25.04C48.4351 26.4405 48.2489 29.243 46.7216 32.9862C45.2351 36.6293 42.5902 40.8709 38.482 45.0293L42.7504 49.2461ZM40.622 44.1377H40.6162V50.1377H40.622V44.1377ZM41.0568 43.5793C40.5448 43.8338 39.9762 44.1164 39.3119 44.4389L41.932 49.8366C42.6245 49.5005 43.2158 49.2065 43.7274 48.9522L41.0568 43.5793ZM47.4381 41.2773C44.6675 41.781 43.4404 42.3946 41.0568 43.5793L43.7274 48.9522C45.9896 47.8278 46.5999 47.5281 48.5114 47.1805L47.4381 41.2773ZM55.5444 58.0178C58.43 53.8136 58.9839 49.3415 57.1781 45.8393C55.3618 42.3169 51.5124 40.541 47.4413 41.2767L48.5083 47.1811C50.1855 46.878 51.3284 47.5867 51.8452 48.5891C52.3725 49.6117 52.6003 51.7045 50.5975 54.6223L55.5444 58.0178ZM25.1232 73.7341C35.5521 75.9603 46.6948 70.9104 55.5444 58.0178L50.5976 54.6223C42.6452 66.2079 33.6983 69.4295 26.3758 67.8663L25.1232 73.7341ZM22.7647 70.4985C22.3446 74.6539 21.9637 78.8081 21.6224 82.9575L27.6022 83.4493C27.9404 79.3373 28.3179 75.2204 28.7343 71.102L22.7647 70.4985ZM21.6194 82.997C21.691 81.9588 22.3612 81.1302 23.2326 80.7816L25.461 86.3524C26.621 85.8884 27.5105 84.7827 27.6052 83.4098L21.6194 82.997ZM21.3468 83.567V83.5728H27.3468V83.567H21.3468ZM23.3216 80.7534C23.4433 80.7091 23.6048 80.6617 23.7987 80.6322C23.9952 80.6023 24.1892 80.5962 24.3748 80.6105L23.9149 86.5928C24.4749 86.6358 24.967 86.5395 25.3721 86.3921L23.3216 80.7534ZM24.3638 80.6096C25.832 80.7171 26.8383 81.9902 26.7386 83.3531L20.7546 82.9152C20.6202 84.7514 21.9844 86.4515 23.9258 86.5936L24.3638 80.6096ZM26.7365 83.3804C27.0788 79.2245 27.4611 75.0638 27.883 70.9017L21.9136 70.2966C21.4879 74.496 21.1021 78.6943 20.7567 82.8879L26.7365 83.3804ZM1.09492 44.0362C3.98418 59.3103 12.8128 70.5666 24.1458 73.5032L25.6508 67.6951C17.3085 65.5333 9.61141 56.7771 6.99037 42.921L1.09492 44.0362ZM17.8364 39.4834C15.7388 35.3951 11.5712 32.5128 7.49047 32.8485C5.29065 33.0295 3.24968 34.1778 2.02592 36.3457C0.871808 38.3902 0.627515 41.0059 1.07744 43.9342L7.00785 43.023C6.67242 40.8399 6.99952 39.7405 7.2509 39.2952C7.43262 38.9733 7.63122 38.8572 7.98239 38.8283C9.00365 38.7443 11.1836 39.6605 12.498 42.2224L17.8364 39.4834ZM10.0046 20.6786C8.92154 24.133 9.07215 28.1216 9.64842 31.7416C10.2337 35.418 11.3102 39.0243 12.3478 41.878L17.9866 39.8278C17.0357 37.2123 16.0817 33.9888 15.5738 30.7983C15.0569 27.5514 15.0518 24.6362 15.7298 22.4735L10.0046 20.6786ZM25.025 19.0469C21.4166 12.7749 12.1841 13.7328 10.0048 20.6778L15.7295 22.4743C16.332 20.5543 18.804 20.2656 19.8243 22.039L25.025 19.0469ZM27.529 25.9349C27.0744 23.8889 26.307 21.2764 25.0254 19.0475L19.8239 22.0384C20.6662 23.5032 21.2724 25.4386 21.6719 27.2364L27.529 25.9349ZM41.1719 32.088C44.3369 24.0952 45.0448 17.2012 44.1166 11.8852C43.2129 6.70907 40.5985 2.46518 36.6016 1.05884C32.2281 -0.480067 28.033 1.91214 25.4185 6.28463C22.8246 10.6225 21.3233 17.395 21.6018 26.6756L27.5991 26.4956C27.3381 17.7983 28.796 12.3274 30.5681 9.36386C32.3194 6.43496 33.8969 6.46773 34.6101 6.71869C35.7001 7.1022 37.4868 8.79748 38.206 12.9172C38.9009 16.8969 38.4538 22.6553 35.5934 29.879L41.1719 32.088Z" fill="#222E22" mask="url(#path-1-outside-1_47_31908)"/>
<path d="M40.6162 47.1377C58.0863 29.454 51.6223 9.40986 38.3827 30.9835C50.4334 0.550709 23.5212 -9.37038 24.6005 26.5856C24.1734 24.6638 23.4866 22.3898 22.4247 20.543C20.1103 16.5203 14.2581 17.1436 12.8672 21.576C10.8587 27.9823 13.8368 37.736 15.9895 42.9823C13.6925 34.4983 2.31699 32.2474 4.04264 43.4786C9.34082 71.4874 35.0064 82.6378 53.071 56.3201C57.9594 49.1981 53.7231 43.19 47.9748 44.2289C45.1179 44.7483 44.3792 45.3139 40.622 47.1377H40.6162Z" fill="#96CC96"/>
<path d="M24.3475 83.5727C24.284 83.5958 24.2205 83.6074 24.1455 83.6016C23.9089 83.5843 23.7299 83.3708 23.7473 83.1341C25.7095 59.3097 28.9819 35.3293 33.4663 11.8569C33.5125 11.6203 33.7376 11.4702 33.9742 11.5106C34.2109 11.5568 34.3609 11.7819 34.3205 12.0185C29.8361 35.4621 26.5695 59.4135 24.613 83.2034C24.6014 83.3707 24.4918 83.5093 24.3475 83.567V83.5727Z" fill="#649959"/>
<path d="M29.0397 42.6245C28.8838 42.688 28.7049 42.6591 28.5722 42.5379C24.1686 38.3017 20.5903 33.3671 17.9412 27.8554C17.8373 27.6418 17.9297 27.3821 18.1432 27.2782C18.351 27.1743 18.6165 27.2667 18.7203 27.4802C21.3233 32.8938 24.8381 37.7534 29.1724 41.9146C29.3455 42.082 29.3513 42.3532 29.1839 42.5264C29.1435 42.5725 29.0916 42.6072 29.0397 42.6245Z" fill="#649959"/>
<path d="M26.1996 62.0396C26.0726 62.0915 25.9225 62.0857 25.8013 62.0049C19.3027 57.8553 13.7852 52.1531 9.86063 45.5159C9.73943 45.3082 9.8087 45.0427 10.0107 44.9215C10.2127 44.8003 10.484 44.8695 10.6052 45.0715C14.4662 51.5933 19.8798 57.1973 26.2688 61.272C26.4708 61.3989 26.5285 61.6702 26.4016 61.8722C26.3496 61.9472 26.2804 62.0049 26.1996 62.0396Z" fill="#649959"/>
<path d="M28.2995 46.6356C28.0802 46.7279 27.8321 46.624 27.7397 46.4047C27.6474 46.1854 27.7455 45.9315 27.9648 45.8333C35.0694 42.7629 41.3314 37.5109 45.5908 31.0469C45.7235 30.8449 45.989 30.793 46.191 30.9257C46.393 31.0585 46.4449 31.324 46.3122 31.526C41.9605 38.1285 35.5658 43.4959 28.3053 46.6298C28.3053 46.6298 28.3053 46.6298 28.2995 46.6298V46.6356Z" fill="#649959"/>
<path d="M28.7442 65.2023C27.942 65.5313 27.1398 65.8429 26.3318 66.143C26.1067 66.2238 25.8585 66.1084 25.7777 65.8833C25.6969 65.6582 25.8124 65.3985 26.0374 65.3293C34.5099 62.23 42.4225 57.2781 48.9212 51.0161C49.0943 50.8487 49.3656 50.8545 49.5329 51.0276C49.7003 51.2008 49.6945 51.4721 49.5214 51.6394C43.5595 57.3878 36.4202 62.0453 28.75 65.2023H28.7442Z" fill="#649959"/>
</svg>
