<svg width="77" height="87" viewBox="0 0 77 87" fill="none" xmlns="http://www.w3.org/2000/svg">
<mask id="path-1-outside-1_47_31871" maskUnits="userSpaceOnUse" x="0.423828" y="0.603088" width="76" height="86" fill="black">
<rect fill="white" x="0.423828" y="0.603088" width="76" height="86"/>
<path fill-rule="evenodd" clip-rule="evenodd" d="M5.93143 40.9406C11.473 25.2593 22.5492 11.7652 36.5813 3.61008V3.60309C46.777 9.69673 56.197 18.0196 63.7721 27.8798C67.2382 32.3802 70.3549 37.2928 72.0181 42.7925C73.6743 48.2921 73.7581 54.4836 71.3193 59.6618C68.4262 65.7974 61.9692 69.9273 55.3934 69.8295C49.2479 69.7445 43.2921 65.9653 40.3182 60.3915C41.3998 67.5092 42.8378 74.844 44.7156 82.9602C44.7785 83.2397 44.6037 83.5262 44.3242 83.5891C44.3188 83.59 44.3136 83.5909 44.3084 83.5918C44.2732 83.5978 44.242 83.6031 44.2054 83.6031V83.5961C43.9678 83.5961 43.7512 83.4354 43.6953 83.1908C41.8131 75.0498 40.3705 67.6899 39.2848 60.5472C36.4042 67.9995 29.2832 73.2762 21.8504 73.3026C13.9748 73.3306 6.4206 67.4675 4.21235 59.6199C2.49327 53.5122 3.82102 46.9155 5.93143 40.9406Z"/>
</mask>
<path fill-rule="evenodd" clip-rule="evenodd" d="M5.93143 40.9406C11.473 25.2593 22.5492 11.7652 36.5813 3.61008V3.60309C46.777 9.69673 56.197 18.0196 63.7721 27.8798C67.2382 32.3802 70.3549 37.2928 72.0181 42.7925C73.6743 48.2921 73.7581 54.4836 71.3193 59.6618C68.4262 65.7974 61.9692 69.9273 55.3934 69.8295C49.2479 69.7445 43.2921 65.9653 40.3182 60.3915C41.3998 67.5092 42.8378 74.844 44.7156 82.9602C44.7785 83.2397 44.6037 83.5262 44.3242 83.5891C44.3188 83.59 44.3136 83.5909 44.3084 83.5918C44.2732 83.5978 44.242 83.6031 44.2054 83.6031V83.5961C43.9678 83.5961 43.7512 83.4354 43.6953 83.1908C41.8131 75.0498 40.3705 67.6899 39.2848 60.5472C36.4042 67.9995 29.2832 73.2762 21.8504 73.3026C13.9748 73.3306 6.4206 67.4675 4.21235 59.6199C2.49327 53.5122 3.82102 46.9155 5.93143 40.9406Z" fill="#C6690C"/>
<path d="M36.5813 3.61008L38.0888 6.20385C39.0128 5.66683 39.5813 4.6788 39.5813 3.61008H36.5813ZM5.93143 40.9406L3.10285 39.941L3.1027 39.9415L5.93143 40.9406ZM36.5813 3.60309L38.1204 1.02797C37.1934 0.473953 36.0403 0.460888 35.101 0.993757C34.1617 1.52663 33.5813 2.52319 33.5813 3.60309L36.5813 3.60309ZM63.7721 27.8798L61.3931 29.7075L61.3953 29.7104L63.7721 27.8798ZM72.0181 42.7925L74.8907 41.9274L74.8897 41.9241L72.0181 42.7925ZM71.3193 59.6618L74.0328 60.9413L74.0333 60.9401L71.3193 59.6618ZM55.3934 69.8295L55.438 66.8298L55.4348 66.8298L55.3934 69.8295ZM40.3182 60.3915L42.9651 58.9793C42.2771 57.69 40.7602 57.0839 39.3732 57.5443C37.9862 58.0046 37.1327 59.3974 37.3523 60.8422L40.3182 60.3915ZM44.7156 82.9602L47.6424 82.3017C47.6411 82.2957 47.6397 82.2899 47.6384 82.284L44.7156 82.9602ZM44.3242 83.5891L44.8154 86.5486C44.8715 86.5393 44.9273 86.5284 44.9828 86.5159L44.3242 83.5891ZM44.3084 83.5918L43.8071 80.634L43.805 80.6343L44.3084 83.5918ZM44.2054 83.6031H41.2054C41.2054 85.2599 42.5486 86.6031 44.2054 86.6031V83.6031ZM44.2054 83.5961H47.2054C47.2054 81.9392 45.8623 80.5961 44.2054 80.5961V83.5961ZM43.6953 83.1908L46.6199 82.5223L46.6182 82.515L43.6953 83.1908ZM39.2848 60.5472L42.2507 60.0964C42.0463 58.7518 40.9631 57.713 39.6111 57.565C38.2592 57.4171 36.9769 58.1971 36.4866 59.4656L39.2848 60.5472ZM21.8504 73.3026L21.861 76.3026H21.861L21.8504 73.3026ZM4.21235 59.6199L7.1002 58.8073L7.10014 58.8071L4.21235 59.6199ZM35.0739 1.01631C20.4093 9.53902 8.87509 23.607 3.10285 39.941L8.76 41.9402C14.0709 26.9116 24.6891 13.9914 38.0888 6.20385L35.0739 1.01631ZM33.5813 3.60309V3.61008H39.5813V3.60309H33.5813ZM66.1511 26.0522C58.3463 15.893 48.6417 7.31622 38.1204 1.02797L35.0423 6.17821C44.9123 12.0772 54.0476 20.1462 61.3931 29.7075L66.1511 26.0522ZM74.8897 41.9241C73.0744 35.9214 69.7101 30.6731 66.1489 26.0493L61.3953 29.7104C64.7663 34.0872 67.6355 38.6642 69.1465 43.6609L74.8897 41.9241ZM74.0333 60.9401C76.8687 54.92 76.6987 47.9312 74.8907 41.9274L69.1455 43.6575C70.6499 48.653 70.6476 54.0472 68.6052 58.3835L74.0333 60.9401ZM55.3487 72.8292C63.1527 72.9453 70.6596 68.095 74.0328 60.9413L68.6058 58.3823C66.1928 63.4998 60.7856 66.9094 55.438 66.8298L55.3487 72.8292ZM37.6714 61.8037C41.1291 68.2843 48.0502 72.7282 55.3519 72.8292L55.4348 66.8298C50.4457 66.7608 45.4551 63.6462 42.9651 58.9793L37.6714 61.8037ZM37.3523 60.8422C38.4474 68.0493 39.9012 75.4605 41.7928 83.6364L47.6384 82.284C45.7744 74.2275 44.3522 66.9691 43.2842 59.9409L37.3523 60.8422ZM41.7887 83.6187C41.5008 82.3389 42.2723 80.9758 43.6657 80.6623L44.9828 86.5159C46.9352 86.0766 48.0561 84.1405 47.6424 82.3017L41.7887 83.6187ZM43.8331 80.6296C43.8258 80.6308 43.8195 80.6319 43.8153 80.6326C43.8132 80.6329 43.8113 80.6333 43.81 80.6335C43.8085 80.6337 43.8078 80.6339 43.8071 80.634L44.8097 86.5496C44.8116 86.5493 44.8135 86.549 44.8146 86.5488C44.8159 86.5485 44.8166 86.5484 44.8172 86.5483C44.8182 86.5482 44.8173 86.5483 44.8154 86.5486L43.8331 80.6296ZM43.805 80.6343C43.7466 80.6443 43.953 80.6031 44.2054 80.6031V86.6031C44.5309 86.6031 44.7999 86.5513 44.8118 86.5492L43.805 80.6343ZM47.2054 83.6031V83.5961H41.2054V83.6031H47.2054ZM44.2054 80.5961C45.3088 80.5961 46.3511 81.3467 46.6199 82.5223L40.7707 83.8593C41.1513 85.5241 42.6269 86.5961 44.2054 86.5961V80.5961ZM46.6182 82.515C44.7498 74.4336 43.3229 67.1499 42.2507 60.0964L36.3189 60.998C37.4181 68.2299 38.8764 75.666 40.7724 83.8666L46.6182 82.515ZM21.861 76.3026C30.6745 76.2713 38.8117 70.0921 42.083 61.6288L36.4866 59.4656C33.9968 65.907 27.8918 70.2811 21.8397 70.3026L21.861 76.3026ZM1.3245 60.4325C3.87948 69.5123 12.571 76.3356 21.861 76.3026L21.8397 70.3026C15.3786 70.3256 8.96172 65.4227 7.1002 58.8073L1.3245 60.4325ZM3.1027 39.9415C0.924986 46.1069 -0.647694 53.4256 1.32456 60.4327L7.10014 58.8071C5.63424 53.5989 6.71705 47.7241 8.76016 41.9398L3.1027 39.9415Z" fill="#331D06" mask="url(#path-1-outside-1_47_31871)"/>
<path d="M36.5813 3.61008C22.5492 11.7652 11.473 25.2593 5.93143 40.9406C3.82102 46.9155 2.49327 53.5122 4.21235 59.6199C6.4206 67.4675 13.9748 73.3306 21.8504 73.3026C29.719 73.2747 37.2382 67.3627 39.7469 59.2146C42.4723 65.427 48.8245 69.7387 55.3934 69.8295C61.9692 69.9273 68.4262 65.7974 71.3193 59.6618C73.7581 54.4836 73.6743 48.2921 72.0181 42.7925C70.3549 37.2928 67.2382 32.3802 63.7721 27.8798C56.197 18.0196 46.777 9.69673 36.5813 3.60309V3.61008Z" fill="#E6851B"/>
<path d="M44.2053 83.5961C43.9677 83.5961 43.7511 83.4354 43.6952 83.1908C38.2165 59.4941 36.4625 42.4151 36.3926 18.0475C36.3926 17.761 36.6232 17.5234 36.9167 17.5234C37.2032 17.5234 37.4408 17.754 37.4408 18.0475C37.5107 42.3383 39.2507 59.3404 44.7154 82.9602C44.7783 83.2397 44.6036 83.5262 44.3241 83.5891C44.2822 83.5961 44.2472 83.6031 44.2053 83.6031V83.5961Z" fill="#C6690C"/>
<path d="M37.4265 37.1391C37.3147 37.1461 37.1959 37.1181 37.091 37.0483C31.9687 33.5542 27.4195 29.2705 23.569 24.3089C23.3943 24.0783 23.4362 23.7499 23.6599 23.5752C23.8905 23.3935 24.2189 23.4424 24.3936 23.666C28.1742 28.5367 32.6396 32.7436 37.678 36.1817C37.9156 36.3425 37.9785 36.6709 37.8178 36.9085C37.727 37.0483 37.5732 37.1251 37.4195 37.1391H37.4265Z" fill="#C6690C"/>
<path d="M38.853 56.4683C38.7901 56.4683 38.7202 56.4543 38.6574 56.4333C28.86 52.5479 20.1668 46.042 13.5141 37.6143C13.3324 37.3837 13.3743 37.0553 13.598 36.8805C13.8286 36.6989 14.157 36.7408 14.3317 36.9644C20.8656 45.2453 29.4121 51.6395 39.0417 55.455C39.3073 55.5598 39.44 55.8673 39.3352 56.1328C39.2513 56.3355 39.0557 56.4613 38.846 56.4613L38.853 56.4683Z" fill="#C6690C"/>
<path d="M37.4824 29.1377C37.3216 29.1377 37.1609 29.0608 37.0561 28.921C36.8884 28.6834 36.9443 28.355 37.1749 28.1873C40.9624 25.4829 44.0232 21.7722 46.0218 17.4675C46.1406 17.202 46.4551 17.0901 46.7206 17.2159C46.9862 17.3347 47.098 17.6492 46.9722 17.9147C44.8967 22.3871 41.7172 26.2306 37.7828 29.0468C37.692 29.1097 37.5872 29.1447 37.4754 29.1447L37.4824 29.1377Z" fill="#C6690C"/>
<path d="M38.852 49.6129C38.6843 49.6129 38.5166 49.529 38.4188 49.3823C38.258 49.1447 38.3209 48.8163 38.5655 48.6555C45.3859 44.0993 50.8506 37.6842 54.3657 30.0881C54.4845 29.8225 54.7989 29.7107 55.0645 29.8295C55.33 29.9483 55.4418 30.2628 55.323 30.5283C51.7242 38.2991 46.1337 44.868 39.1525 49.529C39.0617 49.5849 38.9638 49.6199 38.859 49.6199L38.852 49.6129Z" fill="#C6690C"/>
</svg>
