<svg width="57" height="87" viewBox="0 0 57 87" fill="none" xmlns="http://www.w3.org/2000/svg">
<mask id="path-1-outside-1_47_31855" maskUnits="userSpaceOnUse" x="0.636719" y="0.603088" width="56" height="86" fill="black">
<rect fill="white" x="0.636719" y="0.603088" width="56" height="86"/>
<path fill-rule="evenodd" clip-rule="evenodd" d="M24.0593 3.61048C24.0615 3.60802 24.0638 3.60555 24.0661 3.60309L24.0588 3.61031C24.059 3.61037 24.0591 3.61042 24.0593 3.61048ZM32.1018 72.8954C32.9784 68.3882 34.5291 67.1653 37.1156 65.3235L37.1223 65.3188C42.8336 61.2444 48.8895 56.9243 51.6296 50.4633C54.479 43.7546 53.1517 35.9277 50.2662 29.2334C45.2816 17.6555 35.6948 8.14076 24.0593 3.61048C19.1129 9.00391 14.1454 14.4409 10.2734 20.6491C6.39968 26.8601 3.65848 33.9656 3.63684 41.2875C3.61519 48.6094 6.59445 56.1333 12.4159 60.5697C14.5497 62.1912 16.9682 63.3532 19.39 64.5167C20.4805 65.0406 21.5716 65.5648 22.6377 66.1315C25.5962 67.704 28.7261 69.48 30.9154 72.5391C31.7269 76.1076 32.6199 79.6617 33.5943 83.1991C33.6664 83.4516 33.8972 83.6103 34.1497 83.5959V83.6031L34.2579 83.5815C34.5465 83.5021 34.7124 83.2063 34.633 82.9178C33.7169 79.5911 32.8731 76.2497 32.1018 72.8954Z"/>
</mask>
<path fill-rule="evenodd" clip-rule="evenodd" d="M24.0593 3.61048C24.0615 3.60802 24.0638 3.60555 24.0661 3.60309L24.0588 3.61031C24.059 3.61037 24.0591 3.61042 24.0593 3.61048ZM32.1018 72.8954C32.9784 68.3882 34.5291 67.1653 37.1156 65.3235L37.1223 65.3188C42.8336 61.2444 48.8895 56.9243 51.6296 50.4633C54.479 43.7546 53.1517 35.9277 50.2662 29.2334C45.2816 17.6555 35.6948 8.14076 24.0593 3.61048C19.1129 9.00391 14.1454 14.4409 10.2734 20.6491C6.39968 26.8601 3.65848 33.9656 3.63684 41.2875C3.61519 48.6094 6.59445 56.1333 12.4159 60.5697C14.5497 62.1912 16.9682 63.3532 19.39 64.5167C20.4805 65.0406 21.5716 65.5648 22.6377 66.1315C25.5962 67.704 28.7261 69.48 30.9154 72.5391C31.7269 76.1076 32.6199 79.6617 33.5943 83.1991C33.6664 83.4516 33.8972 83.6103 34.1497 83.5959V83.6031L34.2579 83.5815C34.5465 83.5021 34.7124 83.2063 34.633 82.9178C33.7169 79.5911 32.8731 76.2497 32.1018 72.8954Z" fill="#96CC96"/>
<path d="M24.0661 3.60309L26.2768 5.631C27.3798 4.42854 27.3195 2.56502 26.141 1.43643C24.9626 0.307834 23.0982 0.328071 21.9445 1.48198L24.0661 3.60309ZM24.0588 3.61031L21.9373 1.4892C21.2207 2.20594 20.9144 3.23604 21.1231 4.22786C21.3317 5.21968 22.027 6.0391 22.9717 6.40639L24.0588 3.61031ZM32.1018 72.8954L29.157 72.3228C29.0769 72.7347 29.0841 73.1588 29.1781 73.5677L32.1018 72.8954ZM37.1156 65.3235L38.8558 67.7673L38.8578 67.7659L37.1156 65.3235ZM37.1223 65.3188L38.8645 67.7611L38.8646 67.761L37.1223 65.3188ZM51.6296 50.4633L48.8684 49.2905L48.8677 49.292L51.6296 50.4633ZM50.2662 29.2334L47.5107 30.4197L47.5112 30.4209L50.2662 29.2334ZM10.2734 20.6491L12.8189 22.2367L10.2734 20.6491ZM3.63684 41.2875L0.636849 41.2786L3.63684 41.2875ZM12.4159 60.5697L10.5975 62.9558L10.6008 62.9583L12.4159 60.5697ZM19.39 64.5167L20.6891 61.8126H20.6891L19.39 64.5167ZM22.6377 66.1315L24.0457 63.4824L24.0457 63.4824L22.6377 66.1315ZM30.9154 72.5391L33.8407 71.8739C33.7522 71.4849 33.5871 71.1176 33.355 70.7932L30.9154 72.5391ZM33.5943 83.1991L30.702 83.9958C30.7045 84.005 30.7071 84.0141 30.7097 84.0233L33.5943 83.1991ZM34.1497 83.5959H37.1497C37.1497 82.7705 36.8097 81.9816 36.2096 81.4149C35.6096 80.8482 34.8026 80.5537 33.9786 80.6008L34.1497 83.5959ZM34.1497 83.6031H31.1497C31.1497 84.5019 31.5527 85.3533 32.2477 85.9231C32.9428 86.4929 33.8567 86.7211 34.738 86.5448L34.1497 83.6031ZM34.2579 83.5815L34.8462 86.5232C34.9158 86.5093 34.9849 86.4929 35.0534 86.4741L34.2579 83.5815ZM34.633 82.9178L37.5257 82.1223L37.5254 82.1213L34.633 82.9178ZM21.8553 1.57518C21.8539 1.57668 21.8525 1.57815 21.8514 1.57934C21.8503 1.58062 21.8494 1.58162 21.8485 1.58258L26.2701 5.63838C26.3054 5.59983 26.2426 5.66832 26.2768 5.631L21.8553 1.57518ZM26.1804 5.73142L26.1876 5.7242L21.9445 1.48198L21.9373 1.4892L26.1804 5.73142ZM25.1465 0.814411L25.146 0.814231L22.9717 6.40639L22.9721 6.40655L25.1465 0.814411ZM35.0467 73.4681C35.4312 71.4907 35.9067 70.5273 36.3716 69.9044C36.8743 69.231 37.5338 68.7087 38.8558 67.7673L35.3755 62.8798C34.111 63.7802 32.7018 64.7902 31.5634 66.3155C30.3872 67.8913 29.649 69.793 29.157 72.3228L35.0467 73.4681ZM38.8578 67.7659L38.8645 67.7611L35.3802 62.8764L35.3735 62.8812L38.8578 67.7659ZM38.8646 67.761C44.416 63.8007 51.2618 59.0142 54.3915 51.6347L48.8677 49.292C46.5172 54.8343 41.2513 58.6881 35.3801 62.8765L38.8646 67.761ZM54.3909 51.6361C57.6971 43.8518 56.0608 35.0977 53.0212 28.0459L47.5112 30.4209C50.2426 36.7577 51.2609 43.6574 48.8684 49.2905L54.3909 51.6361ZM53.0217 28.0471C47.7339 15.7649 37.5655 5.64976 25.1477 0.814901L22.9708 6.40606C33.8241 10.6318 42.8294 19.5462 47.5107 30.4197L53.0217 28.0471ZM21.8483 1.58278C16.9307 6.94481 11.7705 12.5798 7.72795 19.0615L12.8189 22.2367C16.5204 16.302 21.2951 11.063 26.2702 5.63819L21.8483 1.58278ZM7.72795 19.0615C3.66724 25.5722 0.660656 33.2239 0.636849 41.2786L6.63682 41.2964C6.6563 34.7073 9.13213 28.1479 12.8189 22.2367L7.72795 19.0615ZM0.636849 41.2786C0.613052 49.33 3.87655 57.8339 10.5975 62.9558L14.2343 58.1836C9.31236 54.4327 6.61734 47.8888 6.63682 41.2964L0.636849 41.2786ZM10.6008 62.9583C13.0171 64.7945 15.7164 66.08 18.0908 67.2208L20.6891 61.8126C18.2201 60.6264 16.0824 59.588 14.231 58.1811L10.6008 62.9583ZM18.0908 67.2208C19.1906 67.7492 20.2265 68.2473 21.2297 68.7805L24.0457 63.4824C22.9168 62.8824 21.7704 62.332 20.6891 61.8126L18.0908 67.2208ZM21.2297 68.7805C24.2022 70.3605 26.7394 71.8588 28.4757 74.285L33.355 70.7932C30.7128 67.1011 26.9903 65.0475 24.0457 63.4824L21.2297 68.7805ZM36.4866 82.4025C35.5242 78.9085 34.6422 75.3983 33.8407 71.8739L27.9901 73.2044C28.8116 76.8169 29.7157 80.4148 30.702 83.9958L36.4866 82.4025ZM33.9786 80.6008C35.1132 80.5359 36.1617 81.265 36.4788 82.375L30.7097 84.0233C31.1711 85.6383 32.6812 86.6847 34.3209 86.591L33.9786 80.6008ZM37.1497 83.6031V83.5959H31.1497V83.6031H37.1497ZM33.6697 80.6397L33.5615 80.6613L34.738 86.5448L34.8462 86.5232L33.6697 80.6397ZM31.7404 83.7132C31.3858 82.4237 32.1341 81.0541 33.4624 80.6888L35.0534 86.4741C36.9589 85.9501 38.039 83.989 37.5257 82.1223L31.7404 83.7132ZM29.1781 73.5677C29.959 76.9636 30.8132 80.3464 31.7407 83.7143L37.5254 82.1213C36.6206 78.8357 35.7872 75.5357 35.0255 72.2232L29.1781 73.5677Z" fill="#233320" mask="url(#path-1-outside-1_47_31855)"/>
<path d="M24.0661 3.60309C19.1175 8.99894 14.1472 14.4381 10.2734 20.6491C6.39968 26.8601 3.65848 33.9656 3.63684 41.2875C3.61519 48.6094 6.59445 56.1333 12.4159 60.5697C15.5106 62.9214 19.204 64.3064 22.6377 66.1315C26.0715 67.9566 29.736 70.0557 31.8929 74.1171C32.7225 68.5914 34.3095 67.3217 37.1156 65.3235C42.8289 61.2478 48.8884 56.9268 51.6296 50.4633C54.479 43.7546 53.1517 35.9277 50.2662 29.2334C45.2816 17.6554 35.6945 8.14052 24.0588 3.61031L24.0661 3.60309Z" fill="#77AF6D"/>
<path d="M34.1507 83.5959C33.8982 83.6103 33.6674 83.4516 33.5952 83.1991C27.0524 59.4444 24.1741 34.9394 25.047 10.3624C25.0614 10.0666 25.3067 9.82854 25.6097 9.84297C25.9054 9.85018 26.1435 10.1027 26.1291 10.4056C25.2634 34.8673 28.12 59.2641 34.634 82.9178C34.7134 83.2063 34.5474 83.5021 34.2589 83.5815C34.2228 83.5887 34.1868 83.5959 34.1507 83.6031V83.5959Z" fill="#96CC96"/>
<path d="M25.4223 29.0819C25.2564 29.0891 25.0833 29.0242 24.9679 28.8871C22.0247 25.3164 19.6297 21.3344 17.8624 17.0567C17.7469 16.7826 17.8768 16.4651 18.1581 16.3497C18.4322 16.2343 18.7496 16.3642 18.8651 16.6455C20.5964 20.8222 22.9264 24.7104 25.8046 28.2018C25.9922 28.4327 25.9634 28.7717 25.7325 28.9665C25.6387 29.0386 25.5305 29.0819 25.4223 29.0891V29.0819Z" fill="#96CC96"/>
<path d="M25.7685 25.2442C25.5954 25.2514 25.4222 25.1865 25.3068 25.0422C25.1193 24.8042 25.1626 24.4651 25.3934 24.2848C29.0075 21.4281 31.7559 17.4245 33.1193 13.0242C33.2058 12.7356 33.5088 12.5769 33.7974 12.6707C34.0859 12.7573 34.2446 13.0602 34.1508 13.3488C32.7225 17.9584 29.8515 22.1423 26.0643 25.136C25.9777 25.2081 25.8695 25.2442 25.7613 25.2514L25.7685 25.2442Z" fill="#96CC96"/>
<path d="M26.5179 43.6248C26.4457 43.6248 26.3664 43.6248 26.2942 43.5887C19.5061 40.999 13.7857 35.769 10.59 29.2406C10.4602 28.9737 10.5684 28.6491 10.8353 28.5193C11.1022 28.3894 11.4268 28.4976 11.5566 28.7645C14.6297 35.0477 20.141 40.0828 26.6694 42.5788C26.9507 42.687 27.0877 42.9972 26.9795 43.2785C26.9002 43.4805 26.7126 43.6103 26.5107 43.6248H26.5179Z" fill="#96CC96"/>
<path d="M26.6559 39.4841C26.4828 39.4985 26.3024 39.4192 26.187 39.2677C26.0067 39.0296 26.0572 38.6906 26.288 38.5102C31.1501 34.824 35.0022 29.6518 37.1446 23.9458C37.2528 23.6644 37.563 23.5274 37.8444 23.6284C38.1257 23.7366 38.2628 24.0468 38.1618 24.3281C35.9472 30.2289 31.9652 35.567 26.9445 39.3759C26.8579 39.4408 26.7569 39.4769 26.6487 39.4841H26.6559Z" fill="#96CC96"/>
<path d="M28.1935 55.8375C28.143 55.8375 28.0925 55.8375 28.042 55.8231C19.8328 54.0341 12.4171 49.0206 7.69936 42.0738C7.53344 41.8285 7.59836 41.4895 7.84363 41.3236C8.08889 41.1576 8.42793 41.2226 8.59385 41.4678C13.1601 48.191 20.3306 53.0386 28.2728 54.7699C28.5614 54.8348 28.7489 55.1234 28.684 55.4119C28.6335 55.6572 28.4243 55.8231 28.1863 55.8375H28.1935Z" fill="#96CC96"/>
<path d="M28.2419 52.9304C28.0616 52.9448 27.874 52.8583 27.7658 52.6995C27.5927 52.4543 27.6504 52.1152 27.8957 51.9493C35.1166 46.8853 41.0751 40.0611 45.1148 32.2198C45.2518 31.9529 45.5764 31.8519 45.8434 31.989C46.1103 32.1261 46.2113 32.4507 46.0742 32.7176C41.948 40.7104 35.874 47.6716 28.5088 52.8366C28.4223 52.8943 28.3285 52.9304 28.2347 52.9304H28.2419Z" fill="#96CC96"/>
</svg>
